# xmcd
#
# Track frame offsets:
#	150
#	14611
#	23626
#	39817
#	53687
#	72546
#	87269
#	98823
#	112066
#	129776
#	145504
#
# Disc length: 2122 seconds
# Revision: 0
# Processed by: cddbd v1.5.2PL0 Copyright (c) Steve Scherf et al.
# Submitted via: dBpowerAMP V12.0
#
DISCID=8608480b
DTITLE=Tom Corbett - Upstairs at Charlie's
DYEAR=2001
DGENRE=Country
TTITLE0=Warm Winds
TTITLE1=Mighty Pine
TTITLE2=The Cowboy Song
TTITLE3=I Know What You Want
TTITLE4=Brain Cloudy Blues
TTITLE5=Sing to Me
TTITLE6=Upstairs at Charlie's
TTITLE7=Only One Way to Go
TTITLE8=Lonesome Joe from Kokomo
TTITLE9=Here in My Heart
TTITLE10=Farther Along
EXTD=
EXTT0=
EXTT1=
EXTT2=
EXTT3=
EXTT4=
EXTT5=
EXTT6=
EXTT7=
EXTT8=
EXTT9=
EXTT10=
PLAYORDER=
